<?xml version="1.0" encoding="UTF-8"?>
<!DOCTYPE svg PUBLIC "-//W3C//DTD SVG 1.1//EN" "http://www.w3.org/Graphics/SVG/1.1/DTD/svg11.dtd">
<!-- Creator: CorelDRAW X6 -->
<svg xmlns="http://www.w3.org/2000/svg" xml:space="preserve" width="75.6347mm" height="30.5166mm" version="1.1" style="shape-rendering:geometricPrecision; text-rendering:geometricPrecision; image-rendering:optimizeQuality; fill-rule:evenodd; clip-rule:evenodd"
viewBox="0 0 7563 3052"
 xmlns:xlink="http://www.w3.org/1999/xlink">
 <defs>
  <style type="text/css">
   <![CDATA[
    .str0 {stroke:#F37F90;stroke-width:37.16;stroke-linecap:round;stroke-linejoin:round}
    .fil0 {fill:none;fill-rule:nonzero}
    .fil6 {fill:#726F36}
    .fil7 {fill:#AB2853}
    .fil3 {fill:#B0BA5C}
    .fil5 {fill:#D3D79C}
    .fil2 {fill:#DF6E8A}
    .fil8 {fill:#FAB2B1}
    .fil4 {fill:#FAD4D3}
    .fil1 {fill:#FE9EB7}
    .fil9 {fill:#8C4F42;fill-rule:nonzero}
   ]]>
  </style>
 </defs>
 <g id="Camada_x0020_1">
  <metadata id="CorelCorpID_0Corel-Layer"/>
  <g id="_1014879152">
   <g>
    <g>
     <path class="fil0 str0" d="M2216 775c-74,-74 -74,-194 0,-268 93,-93 243,-93 335,0 116,116 116,303 0,419 -145,145 -379,145 -524,0 -181,-181 -164,-458 0,-655 222,-266 635,-201 828,20 218,250 426,744 884,744"/>
    </g>
    <g>
     <path class="fil0 str0" d="M1903 543c-62,337 -183,491 -473,491 -149,0 -280,-129 -271,-287 7,-127 116,-224 243,-217 101,6 179,92 174,194 -5,81 -74,143 -155,139 -65,-4 -115,-59 -111,-124"/>
    </g>
   </g>
   <g>
    <g>
     <path class="fil0 str0" d="M5348 775c74,-74 74,-194 0,-268 -93,-93 -243,-93 -335,0 -116,116 -116,303 0,419 145,145 379,145 524,0 181,-181 164,-458 0,-655 -222,-266 -635,-201 -828,20 -218,250 -426,744 -884,744"/>
    </g>
    <g>
     <path class="fil0 str0" d="M5661 543c62,337 183,491 473,491 149,0 280,-129 271,-287 -7,-127 -116,-224 -243,-217 -101,6 -179,92 -173,194 5,81 74,143 155,139 65,-4 115,-59 111,-124"/>
    </g>
   </g>
  </g>
  <g>
   <g>
    <path class="fil0 str0" d="M241 882c28,0 56,-10 77,-32 52,-52 52,-138 0,-190 -66,-66 -172,-66 -238,0 -82,82 -82,215 0,297 53,53 122,78 191,77"/>
   </g>
   <g>
    <line class="fil0 str0" x1="271" y1="1035" x2="7292" y2= "1034" />
   </g>
   <g>
    <path class="fil0 str0" d="M7292 1034c69,1 139,-24 191,-77 82,-82 82,-215 0,-297 -66,-66 -172,-66 -238,0 -52,52 -52,138 0,190 21,21 49,32 77,31"/>
   </g>
  </g>
  <g>
   <g>
    <path class="fil0 str0" d="M7323 2561c-28,0 -56,10 -77,32 -52,52 -52,138 0,190 66,66 172,66 238,0 82,-82 82,-215 0,-297 -53,-53 -122,-78 -191,-77"/>
   </g>
   <g>
    <line class="fil0 str0" x1="7292" y1="2409" x2="271" y2= "2409" />
   </g>
   <g>
    <path class="fil0 str0" d="M271 2409c-69,-1 -139,24 -191,77 -82,82 -82,215 0,297 66,66 172,66 238,0 52,-52 52,-138 0,-190 -21,-21 -49,-32 -77,-31"/>
   </g>
  </g>
  <g>
   <path class="fil1" d="M3477 183c1,20 4,42 0,62 -5,24 -9,28 -19,47 1,10 -3,28 -4,38 -2,11 -4,28 -4,41 -7,2 -7,3 -13,5 0,5 1,4 -3,4 -25,15 -10,20 -27,28l-5 2c7,11 9,-1 5,17 -2,8 -3,13 -4,22l0 2 5 41c11,16 22,38 45,50 -8,16 -24,68 -25,90 6,3 24,6 32,8 13,4 22,4 30,13 11,10 31,34 48,36 -2,8 -7,11 -4,22 3,16 25,22 31,28l5 8c2,4 2,6 5,11 6,11 7,70 57,59 17,-4 25,-12 38,-18 13,-7 36,-3 50,1 29,8 22,16 39,20 7,1 39,4 47,2 7,-2 3,2 7,-4l-27 1c35,-2 64,-47 72,-79 -27,3 -52,10 -80,9 1,-6 21,-34 27,-62 -27,8 -45,5 -71,-4 -18,-6 -49,-21 -64,-22l-2 -2c-41,-7 -47,-4 -87,3 12,-25 3,-19 -16,-27 -17,-8 -2,-26 3,-35 -32,-2 -55,-4 -78,-19 -16,-10 -35,-34 -39,-61 34,7 68,18 101,26 24,6 7,4 34,45 13,21 43,25 72,32 26,6 62,16 87,17 20,1 92,-18 110,-25 21,-9 58,-36 64,-36 16,0 1,3 12,-14 -1,-14 24,-39 35,-74 12,-39 -4,-48 25,-86 9,-12 15,-19 25,-31 30,-36 1,-97 -3,-131l24 47 23 -70c-14,-22 -26,-17 -34,-48 -5,-18 -1,-16 -18,-22 -11,-4 -21,-8 -32,-11l9 -43c-6,-5 -6,-7 -7,-16 -4,2 -13,10 -16,13 -10,9 -5,10 -18,7l0 9c0,12 9,40 13,50 8,18 19,23 29,35 13,17 25,73 29,99 0,7 3,17 3,26 0,10 1,21 -5,29 -10,-30 -14,-49 -28,-78 -10,-20 -29,-48 -44,-58 -7,-3 -38,-21 -42,-25 -3,-4 -18,-36 -21,-43l-114 -6c20,3 77,36 87,46 53,51 26,64 37,93 3,5 2,3 5,4 5,-25 4,-35 -6,-58 -9,-18 -21,-30 -29,-44 37,2 46,19 60,45 17,31 30,39 35,69 6,32 1,65 -3,96 -3,28 -13,49 -42,60 -13,22 -11,37 -35,46 -25,9 -35,15 -45,34 0,5 -3,15 -7,16 -6,1 8,0 -3,0l-6 4c6,14 1,-5 4,5 0,2 1,0 -1,4 -6,12 -20,24 -31,30 -34,18 -169,-9 -187,-41 -14,1 -23,1 -36,-3 -10,-3 -17,-8 -26,-10l-2 -2 -2 -2 -2 -2 -2 -3c-21,-18 -48,-76 -50,-115l-4 -9 6 -2c1,-28 6,-37 12,-60 10,3 8,6 16,12 -1,-14 8,-34 15,-42 7,96 39,110 34,176l-18 -3 0 8c8,5 17,12 25,17 8,5 17,14 25,18 3,-2 0,-2 7,-3l26 -2c11,-1 20,-3 31,-4 75,-6 70,38 172,-3l3 -21c-9,-2 -12,-3 -19,-15 -15,-24 -4,-14 -18,-19 -9,13 -23,29 -50,25 -23,-3 -36,-14 -56,-19l6 23c-22,21 -54,7 -80,-2 -1,-6 -2,-14 0,-20 3,-13 2,0 8,-12 -16,6 -43,-5 -47,-19 -3,-9 -1,-20 -3,-31 -6,-26 -55,-92 24,-102 -11,23 -23,31 -10,63 4,11 11,17 15,26 4,10 1,19 2,29 0,1 0,2 0,2l1 4 0 -37c-4,-19 -16,-32 -15,-60 1,-28 16,-34 32,-45 18,-12 24,-20 50,-27 11,-3 22,-4 33,-6 5,-1 11,-1 16,-2 7,-1 9,-1 15,1l11 40c6,5 10,5 21,6 7,1 13,3 20,2l0 -3c-17,-6 -52,-45 -36,-71 19,-6 43,5 61,8l-19 -32c26,7 47,21 66,32l6 -9c2,-4 3,-6 4,-10 -7,-11 -52,-47 -75,-45 -8,0 -15,5 -25,7 -9,2 -19,2 -28,2 -31,-1 -20,-4 -42,12 -8,6 -30,22 -36,25 -15,6 -35,-1 -51,8 -78,40 -39,26 -72,48 -7,-34 1,-80 41,-74 5,10 4,19 19,14 21,-6 23,-50 56,-54 19,-2 19,3 27,10 26,21 46,-24 68,-32 -3,-5 1,-1 -7,-5 24,-5 53,-14 77,-21 25,-7 57,6 83,6 -6,-38 -3,-36 -46,-56l-1 -37 12 3c-3,-7 -3,-26 -27,-28 -37,-2 -39,35 -67,46 -39,15 -68,-5 -98,10 -23,12 -22,22 -47,37 -17,10 -10,1 -17,39 -1,6 -4,18 -4,25 -77,-18 -68,-7 -118,5 -1,7 -1,5 -3,11 0,0 -2,5 -2,5l-2 3c0,0 0,1 -1,2z"/>
   <path class="fil2" d="M3987 95l-9 43c11,3 21,8 32,11 17,6 13,4 18,22 8,31 20,26 34,48l-23 70 38 -6 -4 40c8,8 29,16 34,23 3,5 12,35 14,42 8,24 25,65 9,88 -13,-11 -25,-41 -38,-54l-8 59 -12 0c30,11 29,48 25,74 -4,27 -10,58 -21,81 -16,33 -39,21 -77,25 -34,4 -55,12 -69,32 -13,1 -25,0 -26,-13 -9,4 -12,-17 -25,-37 -61,10 -91,15 -154,3l23 -6c-25,-1 -61,-11 -87,-17 -29,-7 -59,-11 -72,-32 -27,-41 -10,-39 -34,-45 -33,-8 -67,-19 -101,-26 4,27 23,51 39,61 23,15 46,16 78,19 -5,9 -20,27 -3,35 18,9 28,2 16,27 40,-7 46,-10 87,-3l2 2c15,2 46,17 64,22 26,8 44,11 71,4 -5,28 -25,56 -27,62 28,1 53,-6 80,-9 -9,32 -38,77 -72,79l27 -1c13,3 57,-16 66,-23 23,-22 38,-34 47,-78 1,2 1,0 3,5 5,10 8,26 13,34 5,-3 20,-25 26,-32l16 38c33,-65 16,-53 51,-61 28,-7 59,-21 75,-36 25,-24 26,-32 38,-72 24,-81 7,-89 50,-98 3,13 7,26 11,39 5,18 10,22 2,37 -9,16 -29,53 -38,63 -17,19 -31,38 -48,54 -12,11 -14,9 -20,29 -6,18 -6,23 -23,29 -4,3 -3,3 -9,4 3,13 15,19 18,32l5 0c2,-6 11,-17 15,-23 8,-10 1,-3 13,-7 6,-2 8,-4 12,-9 11,-16 -1,-28 32,-50 12,-8 12,-9 21,-20 5,-7 5,-3 8,-12 2,-6 3,-9 4,-16l17 -64c9,2 12,6 23,7 11,1 19,-1 27,-2 10,-2 13,-4 21,-8 22,-11 15,-4 20,-14l-9 4c20,-30 -16,-42 -21,-58 14,-11 13,-2 24,-23 5,-9 12,-23 14,-34 -5,-7 -1,-26 -5,-37 -8,-16 -24,-13 -26,-17 0,-1 -1,-1 -2,-1 17,-9 23,-35 17,-60 -12,-51 -91,-40 -110,-20 -30,29 -18,25 -31,49 -11,-31 2,-33 2,-45 0,-6 -13,-32 -15,-42l-8 -87c-5,2 -3,0 -7,5l-18 19c-6,6 -11,12 -19,16l12 -51 10 -46c-17,7 -28,26 -44,34 -14,-12 -32,-25 -46,-37 -30,-25 9,-30 -34,-47l-3 12z"/>
   <path class="fil2" d="M3806 236c32,41 12,50 25,99l11 -22 18 -34c2,15 2,53 8,64l23 0c11,-20 -6,-59 -2,-67 -11,-29 16,-42 -37,-93 -11,-10 -67,-43 -87,-46l114 6c3,7 18,39 21,43 4,4 35,22 42,25 -2,-4 -1,-3 -5,-7 22,10 31,21 47,36 22,21 26,44 32,53 -4,-26 -15,-82 -29,-99 -9,-12 -21,-17 -29,-35 -4,-10 -13,-38 -13,-50l-2 -3c-5,-10 -5,-15 -11,-25 -5,-8 -12,-15 -19,-22 -6,-6 -16,-13 -24,-17 -5,-3 -8,-5 -13,-7 -6,-4 -9,-3 -15,-7l-12 -3 1 37c44,20 40,17 46,56 -26,0 -58,-13 -83,-6 -24,7 -53,17 -77,21 8,4 4,0 7,5 -22,9 -43,53 -68,32 -8,-7 -8,-12 -27,-10 -33,4 -35,48 -56,54 -16,4 -14,-4 -19,-14 -40,-6 -48,40 -41,74 33,-23 -6,-8 72,-48 16,-8 36,-1 51,-8 6,-3 28,-19 36,-25 23,-16 11,-13 42,-12 9,0 19,0 28,-2 10,-2 16,-7 25,-7 23,-1 68,35 75,45 -1,4 -2,7 -4,10l-6 9c-19,-12 -40,-25 -66,-32l19 32z"/>
   <path class="fil3" d="M3408 491l-5 -41c-9,11 -8,22 -12,27 -13,19 -73,7 -90,2l33 -33 -127 10c4,-12 28,-39 37,-48 34,-35 53,-45 107,-63 35,-11 33,-10 71,-8 -3,-2 0,-1 -4,-3 -25,-13 -68,-16 -95,-14 6,-8 13,-11 16,-23 -35,-16 -40,19 -92,26 5,-11 25,-26 34,-34 6,-6 7,-4 8,-12 -23,-8 -30,6 -45,14 -13,8 -31,14 -49,16 5,-8 10,-13 15,-19 5,-6 10,-9 13,-15l-56 15c5,-7 18,-14 17,-26l-31 -11c-10,-3 -18,-7 -28,-10 16,-3 61,-6 79,-7 27,-1 56,4 80,3 -2,-22 -19,-9 -1,-76 -22,12 -8,24 -83,12 -8,-1 -14,-2 -20,-5 -7,-2 -16,-9 -19,-9 -16,-2 -6,32 -4,38 -21,5 -35,20 -81,18 -13,-1 -17,-5 -27,-7 8,14 23,38 34,49 6,6 15,13 24,17 12,6 20,6 37,6 -3,11 -10,11 -22,18 0,0 -4,2 -4,3 -4,3 -2,1 -5,4 13,0 26,-6 38,-7l7 23c69,1 54,18 72,20 8,1 23,0 32,0 -7,10 -17,18 -25,27 -14,14 -64,77 -67,93l181 38c25,3 42,2 59,-11z"/>
   <path class="fil1" d="M4038 290c14,43 35,50 9,95 -18,31 -35,52 -30,96 5,40 -8,76 -23,107 -26,54 -39,44 -67,59l1 -12c-5,6 -8,16 -12,24 -4,8 -10,15 -13,22 1,13 13,14 26,13 14,-21 36,-29 69,-32 39,-4 62,8 77,-25 11,-23 17,-54 21,-81 4,-26 5,-63 -25,-74l12 0 8 -59c13,13 25,43 38,54 16,-23 -1,-65 -9,-88 -3,-8 -11,-37 -14,-42 -5,-8 -26,-16 -34,-23l4 -40 -38 6z"/>
   <path class="fil1" d="M3880 794c6,-2 16,-6 21,-10 12,-7 11,-11 17,-15 0,11 5,17 9,25 22,43 113,6 122,-14 11,-23 -4,-45 32,-36 18,-6 17,-10 23,-29 7,-20 8,-18 20,-29 17,-16 31,-35 48,-54 9,-11 29,-47 38,-63 9,-15 4,-19 -2,-37 -4,-13 -9,-26 -11,-39 -43,9 -26,17 -50,98 -12,41 -13,48 -38,72 -16,15 -47,29 -75,36 -34,9 -18,-3 -51,61l-16 -38c-6,7 -20,29 -26,32 -5,-8 -8,-24 -13,-34 -2,-4 -1,-3 -3,-5 -9,43 -24,56 -47,78z"/>
   <path class="fil4" d="M3980 79c1,9 1,11 7,16l3 -12c43,16 4,21 34,47 14,12 33,24 46,37 16,-8 27,-27 44,-34l-10 46c6,-3 9,-7 19,-7 1,4 1,6 2,10 0,1 1,6 1,6 2,7 -1,3 3,7 4,-4 2,-2 7,-5l8 87c5,2 9,5 16,6 8,-21 14,-96 7,-118 -5,-16 -14,-28 -20,-46 -5,-16 -11,-40 -10,-58l-5 -3c-10,0 -73,-10 -85,-8 -7,1 -12,4 -17,5 -28,6 -51,-1 -51,23z"/>
   <path class="fil4" d="M3933 565c-1,9 -1,3 2,5 3,-3 9,-8 9,-12 -7,13 -16,71 -16,76l-1 12c28,-15 42,-5 67,-59 15,-31 28,-67 23,-107 -6,-44 12,-65 30,-96 26,-45 5,-52 -9,-95l-24 -47c4,34 34,95 3,131 -10,12 -16,19 -25,31 -28,38 -12,47 -25,86 -11,35 -36,60 -35,74z"/>
   <path class="fil5" d="M3403 451l0 -2 -40 17c6,-12 18,-26 25,-38l-42 5 11 -25c-19,8 -38,24 -56,33l5 -17 -64 7c48,-9 125,-34 160,-69 3,-3 5,-5 8,-8l8 -8c9,8 13,20 16,34 4,0 3,1 3,-4 -1,-7 -3,-18 -5,-23 -1,-6 -1,-5 -4,-10 -5,-7 -1,-4 -8,-5 -38,-3 -36,-3 -71,8 -54,18 -73,28 -107,63 -9,9 -33,37 -37,48l127 -10 -33 33c17,5 77,18 90,-2 4,-5 3,-16 12,-27z"/>
   <path class="fil1" d="M4133 59l5 3c-1,18 5,43 10,58 6,17 14,30 20,46 7,22 1,97 -7,118 -7,-1 -11,-4 -16,-6 2,11 15,36 15,42 0,11 -14,14 -2,45 13,-24 2,-20 31,-49 20,-19 98,-30 110,20 6,25 0,51 -17,60 1,1 2,0 2,1 2,4 18,1 26,17 5,10 0,29 5,37 1,-5 3,-10 4,-16 2,-9 1,-12 7,-16 -5,-7 -8,-13 -12,-21 -4,-8 -8,-16 -10,-25 -5,-22 13,-32 10,-55 -4,-36 -45,-42 -78,-31 -8,3 -4,3 -15,3 -1,-9 6,-7 -20,-7 -1,-17 -5,-32 -5,-52 0,-52 6,-83 -20,-120 -5,-7 -9,-9 -14,-16 5,-3 9,-7 14,-11 7,5 13,9 23,11l3 -18c-18,-4 -36,-11 -57,-11 0,-10 -1,-9 2,-16 -7,2 -9,5 -14,9z"/>
   <path class="fil6" d="M3337 299c0,0 1,-2 1,-1 1,2 12,-22 10,-39 -2,-28 -22,-50 -44,-63 -11,-6 -19,-26 -20,-35 -9,0 -1,0 -4,2 -18,67 -1,55 1,76 -24,1 -53,-4 -80,-3 -18,1 -63,3 -79,7 10,3 19,7 28,10l31 11c1,12 -12,19 -17,26l56 -15c-3,7 -8,10 -13,15 -5,6 -10,11 -15,19 19,-2 36,-8 49,-16 14,-9 22,-22 45,-14 -1,8 -2,7 -8,12 -9,8 -29,23 -34,34 52,-7 57,-42 92,-26z"/>
   <path class="fil4" d="M3588 525c14,9 22,13 40,16 -8,4 -20,4 -30,6 19,32 153,60 187,41 11,-6 25,-18 31,-30 2,-5 2,-2 1,-4 -2,-10 2,9 -4,-5l6 -4c11,0 -3,1 3,0 4,-1 7,-11 7,-16l-6 7 0 -21c-102,40 -97,-4 -172,3 -11,1 -20,2 -31,4l-26 2c-7,1 -4,0 -7,3z"/>
   <path class="fil2" d="M3599 427l26 17c0,0 1,2 1,1 0,0 1,1 1,1l-10 8c-6,12 -5,0 -8,12 -1,6 -1,14 0,20 26,9 58,24 80,2l-6 -23c20,5 33,16 56,19 27,3 41,-12 50,-25 14,4 3,-5 18,19 8,12 10,13 19,15 8,-24 15,-19 27,-32l-1 -18 -11 -2 -33 -7 -9 0 -3 10c0,0 -36,27 -34,-6 -6,4 -1,0 -6,5 -13,15 -8,15 -46,12l9 -16c-6,-11 -11,-13 -24,-19 -14,-6 -15,-7 -24,-16 -6,2 -11,6 -16,8 -20,3 -28,-5 -37,-12 0,5 1,1 -1,4l-12 -10c-3,-3 -1,-2 -4,-4l0 37z"/>
   <path class="fil4" d="M3894 281c2,7 10,13 15,21 5,8 7,12 10,21 16,9 2,26 -4,36 -7,11 -13,20 -21,31 -8,11 -14,21 -20,32 -12,19 -20,10 -32,21l11 2 1 18c18,-9 35,-20 58,-25l-2 13c29,-12 39,-32 42,-60 4,-32 9,-65 3,-96 -6,-30 -18,-38 -35,-69 -14,-25 -23,-43 -60,-45 8,14 20,26 29,44 11,23 11,32 6,58z"/>
   <path class="fil6" d="M3421 161l-16 4 14 61c-12,-5 -21,-15 -35,-21l5 53c12,12 40,23 54,36 7,4 9,1 15,-2 10,-19 14,-22 19,-47 4,-20 1,-42 0,-62l0 -29c-21,-5 -20,-9 -20,-34l-2 0c-7,-1 -7,-1 -16,-13 -7,11 -6,36 -8,51l-10 3z"/>
   <path class="fil4" d="M3781 298l1 -7c11,23 31,50 23,82 -6,27 -28,53 -44,66 -2,33 33,6 34,6l3 -10 9 0c2,-5 0,-2 4,-7 28,-34 33,-65 30,-115l-11 22c-13,-49 7,-58 -25,-99 -18,-3 -43,-14 -61,-8 -16,26 19,65 36,71z"/>
   <path class="fil7" d="M3781 298l0 3 -13 63c-24,0 -32,-2 -50,7 -24,13 -21,16 -33,26l-9 -11 -20 2c-16,8 -9,16 -2,27 5,-3 10,-6 16,-8 10,9 11,9 24,16 13,6 18,8 24,19l-9 16c38,3 33,2 46,-12 5,-5 0,-1 6,-5 15,-13 38,-39 44,-66 8,-32 -12,-59 -23,-82l-1 7z"/>
   <path class="fil3" d="M3444 294c-14,-13 -42,-24 -54,-36 -31,-32 -38,-97 -36,-152 11,10 18,24 29,36 7,-9 9,-27 14,-39l24 58 10 -3c2,-15 1,-40 8,-51 0,-10 -2,-9 -2,-21 -10,3 -13,11 -20,16l-16 -43c-6,5 -11,16 -16,23 -8,-5 -36,-33 -38,-41l-5 0c0,14 -3,29 -4,43 -2,26 -28,73 -3,123 12,25 23,37 44,53 17,13 42,29 65,35z"/>
   <path class="fil1" d="M3617 401c9,8 17,16 37,12 -6,-11 -14,-19 2,-27 5,-14 3,-43 5,-60l34 16 20 -52c6,0 16,4 21,1 -7,-8 -10,-8 -17,-14 -7,-7 -9,-9 -16,-14l-14 33c-8,-8 -16,-19 -23,-28 -5,5 -8,8 -12,14 -5,6 -7,11 -14,13 -19,6 -7,-7 -29,25 -21,31 -6,20 5,82z"/>
   <path class="fil2" d="M3657 387l20 -2 9 11c12,-10 9,-14 33,-26 17,-9 26,-7 50,-7l13 -63c-6,0 -13,-1 -20,-2 -11,-2 -15,-1 -21,-6l-3 0c-5,3 -15,-1 -21,-1l-20 52 -34 -16c-1,17 0,46 -5,60z"/>
   <path class="fil7" d="M3933 565c-12,17 4,14 -12,14 -6,0 -43,28 -64,36 -18,8 -90,26 -110,25l-23 6c63,12 94,7 154,-3 13,20 15,41 25,37 3,-7 9,-14 13,-22 4,-8 7,-18 12,-24 0,-4 9,-63 16,-76 0,4 -6,9 -9,12 -3,-2 -3,4 -2,-5z"/>
   <path class="fil1" d="M3843 313c3,50 -2,81 -30,115 -4,5 -2,2 -4,7l33 7c12,-11 20,-2 32,-21 7,-11 13,-21 20,-32 8,-11 15,-20 21,-31 7,-10 20,-27 4,-36 0,24 -9,32 -32,34l4 -14 -23 0c-5,-12 -6,-49 -8,-64l-18 34z"/>
   <path class="fil4" d="M3607 696l-6 33c13,1 22,2 34,-2 12,-4 12,-8 21,-15 5,5 9,16 14,22 -7,4 -16,11 -20,18 25,6 59,-5 83,-15 9,-4 11,-10 16,-17 -5,-4 -10,-8 -16,-13 -6,-6 -9,-13 -15,-18 -16,6 -19,13 -41,10 -4,-13 -4,-20 -20,-22 -17,15 3,11 -49,19z"/>
   <path class="fil7" d="M4314 450c-2,11 -9,25 -14,34 -11,22 -10,12 -24,23 5,16 41,28 21,58l9 -4c10,2 22,-15 29,-21 11,-11 17,-17 13,-39 -3,-16 -1,-32 -4,-48 -3,-17 -8,-25 -20,-35 -6,4 -5,8 -7,16 -1,6 -3,10 -4,16z"/>
   <path class="fil6" d="M3403 449c1,-8 2,-14 4,-22 5,-18 2,-7 -5,-17l5 -2c17,-8 2,-13 27,-28 -3,-14 -7,-26 -16,-34l-8 8c-3,3 -5,5 -8,8 -35,35 -112,60 -160,69l64 -7 -5 17c19,-9 38,-25 56,-33l-11 25 42 -5c-7,12 -19,27 -25,38l40 -17z"/>
   <path class="fil5" d="M3389 258l-5 -53c14,6 22,16 35,21l-14 -61 16 -4 -24 -58c-5,12 -7,31 -14,39 -11,-12 -18,-26 -29,-36 -2,55 5,120 36,152z"/>
   <path class="fil2" d="M3477 409c4,-10 2,0 10,20 4,9 8,17 13,24 7,12 26,30 38,37l0 -8c-2,-24 -4,-47 -9,-71 -6,-29 -13,-38 -22,-60 -9,-5 -6,-8 -16,-12 -5,22 -11,32 -12,60l-6 2 4 9z"/>
   <path class="fil7" d="M3599 391c3,2 1,1 4,4l12 10c3,-2 1,2 1,-4 -12,-61 -26,-51 -5,-82 22,-33 10,-19 29,-25 7,-2 9,-7 14,-13 4,-6 7,-9 12,-14 7,9 15,20 23,28l14 -33c7,5 9,8 16,14 7,6 10,6 17,14l3 0 -11 -40c-6,-2 -7,-1 -15,-1 -6,1 -11,1 -16,2 -11,1 -22,3 -33,6 -26,6 -32,15 -50,27 -16,11 -31,18 -32,45 -1,28 11,41 15,60z"/>
   <path class="fil4" d="M3617 454l10 -8c0,0 -1,-1 -1,-1 0,0 -1,-1 -1,-1l-26 -17 -1 -4c0,-1 0,-1 0,-2 -1,-10 2,-19 -2,-29 -4,-9 -10,-14 -15,-26 -13,-32 -1,-40 10,-63 -79,9 -29,76 -24,102 2,10 1,22 3,31 4,14 31,25 47,19z"/>
   <path class="fil7" d="M3527 525l2 3 2 2 2 2 2 2c9,2 16,7 26,10 13,4 22,4 36,3 10,-2 22,-3 30,-6 -18,-3 -26,-7 -40,-16 -7,-4 -17,-13 -25,-18 -8,-6 -17,-12 -25,-17 -13,-7 -31,-26 -38,-37 -4,-7 -9,-15 -13,-24 -8,-19 -7,-29 -10,-20 2,40 29,97 50,115z"/>
   <path class="fil7" d="M3853 462c-12,13 -19,8 -27,32l-3 21 0 21 6 -7c10,-19 20,-25 45,-34 23,-9 22,-23 35,-46l2 -13c-24,6 -40,16 -58,25z"/>
   <path class="fil4" d="M3507 351c9,21 16,31 22,60 5,24 7,47 9,71l18 3c6,-66 -27,-80 -34,-176 -7,8 -16,29 -15,42z"/>
   <path class="fil7" d="M4149 537c-2,-6 6,-31 8,-40 5,-23 6,-18 23,-29l64 -40 -80 13 -9 -27c-2,29 -10,100 -7,123z"/>
   <path class="fil7" d="M4155 407c30,-5 80,-38 81,-64 -21,-10 -40,9 -50,18 -11,10 -31,29 -31,46z"/>
   <path class="fil7" d="M3942 211c15,10 35,38 44,58 14,30 19,49 28,78 6,-8 6,-19 5,-29 0,-10 -3,-19 -3,-26 -7,-8 -11,-32 -32,-53 -15,-15 -25,-26 -47,-36 4,4 2,3 5,7z"/>
   <path class="fil7" d="M3891 343l-4 14c23,-2 33,-11 32,-34 -4,-9 -5,-14 -10,-21 -5,-8 -13,-14 -15,-21 -3,-2 -2,0 -5,-4 -5,8 13,46 2,67z"/>
   <path class="fil8" d="M4104 178l-12 51c8,-4 13,-10 19,-16l18 -19c-4,-4 -1,0 -3,-7 0,0 -1,-5 -1,-6 -1,-5 -1,-7 -2,-10 -10,0 -14,4 -19,7z"/>
  </g>
  <g>
   <path class="fil9" d="M1176 2126c0,-47 13,-87 38,-120 25,-33 57,-60 96,-81 38,-21 80,-38 125,-49 45,-12 86,-19 125,-24 -25,-30 -50,-63 -73,-97 -23,-34 -43,-70 -61,-106 -17,-36 -31,-73 -42,-110 -10,-37 -16,-73 -16,-109 0,-32 6,-62 16,-90 11,-28 26,-51 46,-71 20,-20 43,-36 70,-47 27,-11 56,-17 88,-17 29,0 56,7 80,19 24,13 44,31 60,53 3,-1 7,-3 13,-6 6,-3 11,-5 17,-8 6,-3 12,-5 17,-7 5,-2 10,-4 13,-5 10,-3 17,-2 22,3 5,5 7,10 8,16 1,6 -1,12 -4,19 -3,6 -8,9 -14,9 -8,0 -13,-3 -15,-8 -3,-6 -2,-10 2,-14 -8,1 -16,4 -22,7 -6,4 -14,8 -24,14 1,4 2,9 4,16 2,7 3,16 4,24 1,9 1,18 0,28 -1,10 -3,19 -6,28 -3,8 -8,14 -15,20 -7,6 -14,10 -22,12 -8,2 -16,2 -24,-1 -8,-3 -15,-9 -19,-18 -5,-9 -7,-19 -6,-30 1,-11 4,-22 10,-32 5,-10 12,-21 20,-31 8,-10 17,-18 27,-25 -8,-12 -18,-22 -28,-30 -10,-8 -20,-15 -30,-20 -11,-5 -21,-8 -31,-10 -10,-2 -19,-3 -27,-3 -25,0 -48,6 -69,17 -21,11 -39,26 -54,45 -15,19 -27,39 -36,62 -8,23 -13,46 -13,69 0,41 8,81 23,120 15,39 33,76 55,112 21,36 44,70 67,104 23,33 43,64 59,94 16,0 35,-1 56,-3 21,-2 43,-4 64,-7 21,-3 43,-6 63,-10 21,-4 39,-7 55,-10 16,-3 28,-5 38,-7 9,-2 13,-3 13,-4 4,1 6,4 6,7 0,3 -3,6 -9,8 -20,6 -43,12 -70,17 -27,5 -54,9 -81,13 -27,4 -52,7 -74,9 -23,2 -40,3 -50,4 23,43 36,88 38,136 2,48 -6,92 -23,134 -17,42 -43,79 -78,110 -35,32 -77,53 -126,63 -15,3 -32,6 -51,7 -19,1 -39,0 -59,-3 -20,-3 -40,-9 -59,-17 -19,-8 -37,-19 -52,-34 -16,-14 -28,-33 -37,-54 -9,-22 -14,-48 -14,-79zm57 -20c0,23 5,45 14,66 9,21 22,39 38,54 16,16 35,28 56,36 21,9 44,13 68,13 34,0 63,-6 88,-19 25,-13 46,-30 63,-52 17,-22 30,-47 38,-75 8,-28 13,-58 13,-88 0,-30 -3,-61 -10,-91 -7,-30 -18,-58 -33,-84 -39,3 -79,10 -119,21 -40,10 -76,25 -108,44 -32,19 -58,43 -78,71 -20,29 -30,63 -30,104zm489 -801c-6,4 -12,10 -18,16 -6,6 -12,13 -17,21 -5,8 -8,16 -11,24 -2,8 -2,16 0,24 6,14 14,20 24,19 10,-2 18,-10 24,-24 5,-14 7,-28 6,-44 -1,-16 -4,-28 -8,-35zm400 788c-21,16 -41,30 -63,41 -21,11 -46,17 -72,17 -22,0 -41,-4 -58,-13 -17,-8 -31,-20 -43,-34 -12,-14 -21,-31 -27,-50 -6,-19 -10,-38 -10,-60 -1,-30 3,-59 10,-89 8,-30 19,-57 34,-81 15,-24 34,-43 56,-58 22,-15 47,-22 75,-22 21,0 38,4 52,12 14,8 29,19 45,33 3,-6 7,-12 13,-15 6,-4 11,-6 16,-5 5,0 10,3 14,7 4,4 7,11 7,20 -2,44 -5,84 -7,122 -3,38 -5,71 -6,100 -1,60 1,102 8,126 7,24 22,33 44,25 11,-3 23,-13 34,-27 12,-15 23,-33 35,-54 12,-21 24,-45 35,-71 11,-26 22,-52 33,-78 11,-26 21,-50 30,-73 9,-23 17,-43 24,-59 3,1 5,3 7,6 2,2 2,8 0,17 -2,9 -6,22 -12,40 -6,17 -16,41 -28,72 -6,10 -13,24 -20,39 -7,16 -14,33 -23,52 -8,19 -17,37 -27,56 -10,19 -20,36 -32,51 -12,15 -25,28 -39,38 -14,10 -30,16 -46,16 -14,0 -24,-3 -31,-10 -7,-7 -13,-15 -17,-25 -4,-10 -7,-21 -8,-33 -2,-12 -3,-23 -4,-33zm-203 -122c0,12 1,27 3,45 2,18 6,36 12,53 6,17 14,32 25,44 11,12 26,18 44,18 9,0 20,-2 33,-6 13,-4 26,-10 38,-17 12,-7 23,-15 32,-24 9,-9 15,-19 17,-30 2,-23 4,-43 5,-59 1,-16 2,-34 2,-55 0,-20 -1,-38 -2,-54 -1,-16 -3,-36 -5,-59 -8,-19 -19,-35 -34,-47 -15,-12 -33,-18 -53,-18 -23,0 -41,8 -56,23 -15,16 -27,34 -36,56 -9,22 -15,45 -18,68 -4,23 -5,44 -5,61zm471 -177c16,-7 27,-5 34,7 7,12 12,30 15,53 2,23 3,50 2,79 -1,30 -2,58 -3,85 2,-23 7,-50 14,-84 7,-33 18,-65 32,-96 14,-31 32,-56 55,-78 23,-21 51,-31 84,-30 32,1 59,13 81,34 23,21 38,51 45,89 7,66 14,119 22,160 8,41 16,72 24,94 8,22 16,37 24,44 8,7 15,10 22,8 13,-3 26,-12 36,-27 11,-16 21,-34 29,-56 8,-21 16,-45 23,-71 7,-26 13,-50 18,-74 5,-24 10,-45 14,-65 4,-19 8,-34 12,-43 4,-4 8,-2 10,4 3,6 2,14 -2,23 -16,77 -32,139 -46,187 -15,47 -29,84 -43,110 -14,26 -27,43 -40,52 -13,8 -26,12 -38,12 -22,-1 -41,-9 -56,-23 -16,-14 -28,-32 -38,-54 -10,-22 -17,-47 -21,-76 -4,-28 -6,-57 -4,-86 1,-27 0,-54 -1,-81 -2,-26 -5,-50 -11,-71 -5,-21 -12,-38 -22,-51 -9,-13 -20,-20 -34,-22 -27,-2 -51,5 -71,22 -20,17 -36,38 -49,63 -13,25 -23,52 -30,81 -7,29 -11,54 -12,75 -5,34 -7,67 -7,98 0,32 -3,64 -7,97l0 2c-1,3 -5,6 -13,7 -8,1 -14,-3 -18,-12 -7,-15 -12,-39 -15,-72 -3,-33 -6,-69 -11,-107 -1,-7 -1,-17 -3,-32 -1,-14 -2,-31 -3,-50 -1,-19 -1,-39 -2,-61 0,-22 0,-44 1,-65zm560 -80c-20,4 -43,7 -68,8 -25,1 -49,0 -71,-4 -23,-4 -42,-11 -58,-22 -16,-11 -25,-26 -28,-48 1,-3 5,-6 9,-8 5,-2 8,0 11,5 -1,13 4,24 17,34 13,10 30,17 51,22 21,5 43,6 68,5 24,-1 47,-7 69,-17 0,-11 0,-25 1,-41 1,-16 2,-32 3,-50 1,-17 3,-34 5,-51 2,-17 4,-31 6,-43 3,-18 5,-32 7,-44 2,-12 5,-21 8,-28 3,-7 7,-12 12,-16 5,-4 10,-7 16,-10 6,-1 12,0 19,5 7,5 11,12 11,21 -1,12 -4,25 -6,39 -3,14 -6,30 -9,48 -3,17 -6,37 -8,59 -2,21 -3,45 -3,70 16,-8 35,-20 59,-34 24,-14 48,-27 74,-38 26,-11 51,-16 75,-17 25,-1 46,8 65,26 3,2 4,5 1,10 -3,5 -5,6 -7,3 -9,-13 -21,-20 -36,-23 -15,-3 -31,-2 -49,2 -18,4 -36,10 -54,18 -19,8 -36,18 -53,28 -16,10 -31,19 -45,29 -13,10 -23,17 -30,22 0,2 0,10 -1,23 0,13 -1,27 -1,42 0,15 0,29 -1,42 0,13 -1,21 -1,24 0,14 0,33 0,58 0,25 1,51 3,80 2,28 5,58 9,87 4,30 11,56 19,80 8,24 20,43 33,58 14,15 31,23 51,23 22,-6 42,-16 60,-32 18,-16 34,-35 48,-56 14,-21 27,-45 38,-71 11,-26 20,-51 28,-77 8,-26 15,-50 20,-74 5,-23 10,-44 13,-61 2,-4 4,-5 7,-3 2,2 3,9 2,23 -3,22 -8,46 -14,73 -7,27 -15,55 -26,82 -11,28 -23,55 -37,80 -14,26 -30,49 -48,68 -18,20 -37,35 -58,45 -21,11 -43,14 -66,12 -30,-4 -55,-14 -74,-32 -19,-18 -33,-40 -44,-66 -10,-27 -18,-56 -21,-89 -4,-33 -5,-67 -6,-102 0,-35 0,-69 1,-104 1,-34 1,-66 1,-95zm608 379c-21,16 -41,30 -63,41 -21,11 -46,17 -72,17 -22,0 -41,-4 -58,-13 -17,-8 -31,-20 -43,-34 -12,-14 -21,-31 -27,-50 -6,-19 -10,-38 -10,-60 -1,-30 3,-59 10,-89 8,-30 19,-57 34,-81 15,-24 34,-43 56,-58 22,-15 47,-22 75,-22 21,0 38,4 52,12 14,8 29,19 45,33 3,-6 7,-12 13,-15 6,-4 11,-6 16,-5 5,0 10,3 14,7 4,4 7,11 7,20 -2,44 -5,84 -7,122 -3,38 -5,71 -6,100 -1,60 1,102 8,126 7,24 22,33 44,25 11,-3 23,-13 34,-27 12,-15 23,-33 35,-54 12,-21 24,-45 35,-71 11,-26 22,-52 33,-78 11,-26 21,-50 30,-73 9,-23 17,-43 24,-59 3,1 5,3 7,6 2,2 2,8 0,17 -2,9 -6,22 -12,40 -6,17 -16,41 -28,72 -6,10 -13,24 -20,39 -7,16 -14,33 -23,52 -8,19 -17,37 -27,56 -10,19 -20,36 -32,51 -12,15 -25,28 -39,38 -14,10 -30,16 -46,16 -14,0 -24,-3 -31,-10 -7,-7 -13,-15 -17,-25 -4,-10 -7,-21 -8,-33 -2,-12 -3,-23 -4,-33zm-203 -122c0,12 1,27 3,45 2,18 6,36 12,53 6,17 14,32 25,44 11,12 26,18 44,18 9,0 20,-2 33,-6 13,-4 26,-10 38,-17 12,-7 23,-15 32,-24 9,-9 15,-19 17,-30 2,-23 4,-43 5,-59 1,-16 2,-34 2,-55 0,-20 -1,-38 -2,-54 -1,-16 -3,-36 -5,-59 -8,-19 -19,-35 -34,-47 -15,-12 -33,-18 -53,-18 -23,0 -41,8 -56,23 -15,16 -27,34 -36,56 -9,22 -15,45 -18,68 -4,23 -5,44 -5,61zm1194 -258c-17,8 -35,14 -53,19 -18,5 -38,8 -60,9 -1,23 -3,50 -5,82 -2,32 -5,66 -10,102 -5,35 -11,70 -19,105 -8,35 -21,66 -36,93 -16,27 -36,50 -60,67 -24,17 -54,26 -89,26 -27,0 -51,-8 -72,-25 -21,-17 -39,-38 -54,-62 -15,-25 -26,-51 -34,-79 -8,-28 -12,-53 -12,-74 0,-11 2,-24 6,-41 4,-17 10,-32 17,-47 8,-15 18,-28 30,-39 12,-11 27,-16 44,-16 13,0 24,3 34,10 10,6 18,14 24,24 6,10 11,21 15,33 3,12 5,23 5,34 -1,8 -3,11 -8,11 -5,0 -6,-4 -5,-11 0,-9 -2,-19 -5,-29 -4,-10 -8,-19 -14,-27 -6,-8 -13,-15 -21,-21 -8,-5 -17,-8 -26,-8 -14,0 -26,5 -36,14 -10,10 -18,21 -24,35 -6,14 -11,28 -14,43 -3,15 -4,27 -4,37 0,18 4,41 11,67 7,26 17,52 30,76 13,24 29,44 47,61 19,16 40,24 63,23 21,-1 40,-10 56,-27 17,-17 31,-38 43,-64 12,-26 23,-56 31,-89 8,-33 15,-66 21,-100 6,-34 10,-66 13,-98 3,-32 6,-59 8,-82 -25,-8 -43,-19 -52,-35 -10,-16 -14,-31 -12,-46 1,-18 10,-35 25,-49 15,-14 33,-21 54,-21l28 -355c-23,1 -51,9 -85,24 -33,14 -65,33 -96,56 -31,23 -58,50 -81,80 -23,30 -36,62 -41,95 -3,24 -1,44 6,59 7,16 17,27 29,35 12,8 26,12 41,12 15,0 29,-4 42,-12 13,-8 24,-19 33,-33 9,-14 14,-33 14,-54 0,-10 -2,-18 -7,-22 -5,-4 -11,-5 -17,-4 -7,1 -14,4 -21,9 -7,5 -13,11 -17,17 -1,2 -4,2 -7,-1 -3,-3 -3,-6 -1,-9 7,-9 15,-16 25,-20 10,-4 19,-6 27,-5 8,1 16,4 22,10 6,6 10,15 10,26 0,25 -5,45 -15,62 -10,17 -23,30 -38,39 -16,9 -32,13 -49,14 -17,0 -33,-4 -48,-13 -14,-9 -26,-22 -34,-40 -8,-18 -11,-41 -8,-69 3,-25 11,-49 23,-72 13,-23 28,-44 48,-63 19,-19 40,-37 62,-53 23,-16 45,-30 68,-41 23,-11 44,-20 65,-27 20,-6 37,-10 51,-10 2,-7 5,-17 9,-28 4,-12 10,-23 18,-34 8,-11 19,-20 34,-26 14,-7 33,-9 56,-6 4,0 6,3 6,7 0,5 -2,7 -7,6 -8,-1 -17,1 -26,5 -9,4 -17,9 -24,16 -7,7 -14,16 -18,25 -5,10 -8,20 -8,31 41,2 80,7 119,15 38,8 72,21 102,39 30,18 53,43 71,74 18,31 26,71 26,120 0,25 -4,48 -13,69 -8,20 -19,39 -32,55 -13,16 -27,30 -43,42 -16,12 -30,22 -44,31 -14,8 -27,15 -38,20 -11,5 -18,8 -22,11 12,23 23,52 33,87 10,36 20,73 29,113 9,40 19,80 30,120 10,40 22,76 35,107 13,31 27,57 44,76 17,19 36,27 58,24 18,-2 34,-13 50,-32 16,-19 31,-43 45,-71 14,-28 27,-59 39,-91 12,-33 22,-64 30,-93 8,-29 15,-55 19,-77 5,-22 7,-36 8,-41 5,-1 8,7 11,22 -1,7 -4,22 -9,45 -5,23 -12,49 -21,79 -9,30 -19,61 -32,94 -12,32 -26,62 -41,90 -15,27 -32,50 -50,68 -18,18 -37,26 -57,25 -35,-1 -65,-10 -90,-28 -25,-18 -45,-42 -62,-72 -17,-30 -31,-64 -42,-102 -11,-38 -21,-76 -29,-115 -8,-39 -16,-76 -23,-113 -7,-37 -15,-69 -24,-97zm-111 8c13,1 28,-1 44,-5 17,-4 37,-11 59,-21 -3,-11 -9,-22 -16,-32 -7,-10 -15,-19 -24,-26 -9,-8 -18,-14 -29,-19 -10,-5 -20,-7 -29,-7l-6 109zm-38 -107c-16,0 -28,3 -38,10 -10,6 -16,20 -19,40 -2,17 2,31 13,41 11,10 22,16 34,17l9 -108zm47 -22c27,3 53,12 79,24 26,13 47,32 63,58 21,-10 41,-22 59,-35 18,-14 34,-29 48,-47 13,-17 24,-36 32,-57 8,-20 11,-42 10,-65 -1,-38 -8,-72 -22,-101 -14,-30 -33,-54 -57,-74 -24,-20 -52,-34 -84,-44 -32,-10 -66,-14 -103,-14l-24 355z"/>
   <path class="fil9" d="M4972 1968c-1,-28 2,-55 7,-81 6,-26 15,-48 27,-68 13,-19 29,-35 50,-46 21,-11 46,-17 77,-17 17,0 34,3 52,10 18,7 35,16 51,26 16,11 31,24 43,38 13,14 22,29 27,45 13,0 26,-2 40,-6 14,-4 28,-9 42,-14 14,-6 28,-12 42,-18 14,-6 27,-12 39,-16 2,3 2,6 1,9 -1,3 -4,6 -8,9 -4,3 -8,5 -12,8 -4,3 -8,4 -10,5 -3,1 -10,5 -22,9 -12,5 -25,10 -39,15 -14,5 -27,10 -39,15 -12,5 -19,8 -22,9 3,13 6,30 9,50 2,20 3,41 2,63 -1,22 -5,44 -11,66 -6,22 -16,42 -28,60 -13,18 -30,33 -51,45 -21,12 -46,19 -77,20 -34,0 -63,-8 -87,-23 -24,-15 -43,-34 -59,-58 -15,-23 -26,-49 -34,-77 -7,-28 -11,-54 -11,-80zm111 -167c-14,21 -24,47 -31,78 -7,31 -9,63 -8,96 1,33 6,64 15,95 9,30 22,55 39,75 9,10 20,18 33,24 13,6 26,9 41,10 14,1 29,-2 44,-8 15,-6 29,-16 42,-29 14,-16 25,-33 31,-53 7,-20 11,-41 12,-62 1,-21 0,-43 -2,-64 -3,-21 -6,-42 -9,-61 -17,0 -35,-3 -53,-7 -19,-5 -37,-12 -56,-21 -18,-9 -36,-19 -52,-31 -16,-12 -31,-25 -45,-40zm22 -13c8,11 19,21 32,32 14,11 29,21 45,30 17,9 34,16 51,21 18,5 35,8 51,8 -6,-17 -16,-33 -32,-48 -16,-15 -32,-27 -50,-37 -18,-10 -36,-15 -54,-17 -18,-2 -32,2 -44,11zm550 417c-25,0 -47,-5 -66,-16 -19,-11 -34,-25 -46,-42 -12,-17 -20,-37 -24,-58 -4,-21 -4,-43 1,-65 5,-22 14,-43 27,-62 13,-19 32,-35 55,-48 -2,-1 -9,-4 -21,-10 -12,-6 -25,-13 -39,-20 -14,-7 -28,-15 -42,-22 -13,-7 -23,-13 -28,-16 -6,-3 -12,-6 -18,-10 -6,-4 -12,-8 -17,-13 -5,-5 -9,-10 -12,-17 -3,-6 -4,-14 -2,-21 3,-9 7,-15 13,-18 6,-3 11,-3 15,-2 4,2 7,5 9,11 2,5 1,12 -3,19 -3,6 0,13 8,21 8,8 20,17 36,27 15,9 34,19 55,30 21,10 43,21 67,31 19,-8 42,-17 69,-27 27,-10 54,-18 80,-27 27,-8 50,-16 72,-22 21,-6 36,-11 44,-13 1,0 4,0 9,1 5,0 6,2 4,6 -11,2 -29,7 -53,14 -24,7 -49,15 -76,24 -27,9 -53,18 -79,27 -25,10 -44,17 -57,24 13,4 28,11 43,19 16,9 30,20 43,33 13,13 25,28 34,44 9,17 15,35 16,54 4,46 -5,81 -24,107 -20,25 -50,38 -91,38zm-41 -287c-19,10 -34,24 -45,42 -11,17 -19,36 -24,56 -5,20 -6,40 -3,61 3,20 8,39 17,56 9,17 21,31 36,42 15,11 33,17 54,17 13,1 23,-3 30,-12 7,-9 13,-20 16,-33 4,-13 6,-27 7,-41 1,-14 1,-27 1,-38 0,-14 -2,-28 -6,-43 -4,-15 -10,-30 -18,-44 -8,-14 -17,-27 -28,-38 -11,-11 -23,-20 -36,-25zm484 175c-21,16 -41,30 -63,41 -21,11 -46,17 -72,17 -22,0 -41,-4 -58,-13 -17,-8 -31,-20 -43,-34 -12,-14 -21,-31 -27,-50 -6,-19 -10,-38 -10,-60 -1,-30 3,-59 10,-89 8,-30 19,-57 34,-81 15,-24 34,-43 56,-58 22,-15 47,-22 75,-22 21,0 38,4 52,12 14,8 29,19 45,33 3,-6 7,-12 13,-15 6,-4 11,-6 16,-5 5,0 10,3 14,7 4,4 7,11 7,20 -2,44 -5,84 -7,122 -3,38 -5,71 -6,100 -1,60 1,102 8,126 7,24 22,33 44,25 11,-3 23,-13 34,-27 12,-15 23,-33 35,-54 12,-21 24,-45 35,-71 11,-26 22,-52 33,-78 11,-26 21,-50 30,-73 9,-23 17,-43 24,-59 3,1 5,3 7,6 2,2 2,8 0,17 -2,9 -6,22 -12,40 -6,17 -16,41 -28,72 -6,10 -13,24 -20,39 -7,16 -14,33 -23,52 -8,19 -17,37 -27,56 -10,19 -20,36 -32,51 -12,15 -25,28 -39,38 -14,10 -30,16 -46,16 -14,0 -24,-3 -31,-10 -7,-7 -13,-15 -17,-25 -4,-10 -7,-21 -8,-33 -2,-12 -3,-23 -4,-33zm-203 -122c0,12 1,27 3,45 2,18 6,36 12,53 6,17 14,32 25,44 11,12 26,18 44,18 9,0 20,-2 33,-6 13,-4 26,-10 38,-17 12,-7 23,-15 32,-24 9,-9 15,-19 17,-30 2,-23 4,-43 5,-59 1,-16 2,-34 2,-55 0,-20 -1,-38 -2,-54 -1,-16 -3,-36 -5,-59 -8,-19 -19,-35 -34,-47 -15,-12 -33,-18 -53,-18 -23,0 -41,8 -56,23 -15,16 -27,34 -36,56 -9,22 -15,45 -18,68 -4,23 -5,44 -5,61z"/>
  </g>
  <g>
   <path class="fil9" d="M2384 2764c-12,20 -19,35 -23,43l-18 39 -21 43c-1,2 -7,15 -17,39 -4,10 -8,17 -11,24 -2,4 -3,6 -4,8 -3,6 -6,10 -9,10 -3,0 -6,-3 -9,-10 -1,-1 -2,-5 -6,-11l-4 -9 -77 -167 -5 102c0,8 -1,25 -1,50 0,24 8,37 25,40 8,1 12,3 12,6 0,3 -2,5 -6,5 -3,0 -5,0 -8,0 -15,-1 -27,-2 -35,-2 -10,0 -20,0 -29,2 -3,0 -5,0 -6,0 -4,0 -6,-1 -6,-4 0,-2 2,-4 5,-4 10,-2 17,-7 21,-14 4,-7 6,-19 7,-36l3 -60c2,-43 3,-70 3,-82 0,-24 -3,-42 -10,-54 -6,-12 -17,-19 -32,-22 -4,-1 -6,-2 -6,-5 0,-3 2,-4 5,-4 1,0 4,0 7,0 2,0 7,0 14,0 11,0 18,0 21,0 3,0 6,0 8,0 6,0 11,4 15,13l2 5 86 185 10 21c1,4 3,5 3,5 1,0 2,-1 3,-4l2 -6 2 -4 96 -207c2,-4 4,-7 5,-8 1,-1 3,-1 5,-1 1,0 4,0 9,1 2,0 4,0 7,0 9,0 16,0 21,-1 2,0 4,0 6,0 3,0 4,1 4,4 0,3 -1,4 -4,5l-9 2c-7,2 -12,6 -15,13 -3,7 -4,18 -4,34l1 50 4 112 1 26c0,10 2,18 6,22 4,4 11,8 21,9 7,1 11,3 11,5 0,3 -3,4 -8,4 -1,0 -3,0 -5,0l-16 -2c-5,0 -11,-1 -17,-1 -4,0 -11,0 -20,1 -14,1 -22,1 -25,1 -4,0 -6,-1 -6,-4 0,-2 2,-4 5,-5 8,-2 14,-6 16,-11 3,-5 4,-14 4,-26l-1 -34 -5 -131zm196 35c25,0 46,9 64,26 18,17 27,38 27,62 0,26 -9,48 -26,64 -17,17 -39,25 -66,25 -26,0 -47,-8 -64,-25 -17,-16 -25,-38 -25,-63 0,-25 9,-46 27,-64 18,-17 39,-26 65,-26zm-5 8c-17,0 -31,6 -41,19 -10,13 -16,29 -16,50 0,26 7,48 20,66 13,18 29,26 49,26 17,0 30,-6 40,-19 10,-12 15,-29 15,-51 0,-27 -6,-49 -19,-66 -12,-17 -28,-25 -48,-25zm182 19c15,-19 33,-28 54,-28 12,0 22,2 30,7 8,5 15,13 22,24 16,-20 34,-31 56,-31 19,0 33,6 43,18 10,12 16,28 16,50l0 66c0,11 2,18 6,23 4,5 11,8 20,9 3,0 5,2 5,4 0,2 -2,4 -5,4 -1,0 -4,0 -6,-1 -4,-1 -11,-1 -20,-1 -18,0 -29,0 -34,1 -3,0 -5,1 -6,1 -4,0 -5,-1 -6,-4 0,-2 1,-3 3,-4 6,-2 10,-5 12,-7 2,-2 3,-6 3,-11l0 -7 0 -67c0,-18 -4,-33 -12,-43 -8,-10 -19,-15 -33,-15 -9,0 -18,3 -27,9 -8,6 -13,12 -13,18 0,1 0,3 1,5 1,5 1,10 1,14l0 74c0,10 2,18 5,22 4,4 10,7 20,7 5,0 7,2 7,5 0,3 -2,4 -6,4 -1,0 -4,0 -7,0 -8,-1 -14,-1 -19,-1 -19,0 -31,0 -36,1 -3,0 -5,1 -6,1 -3,0 -5,-1 -5,-4 0,-2 1,-3 4,-4 7,-3 12,-5 13,-8 1,-3 2,-9 2,-20l0 -76c0,-14 -4,-26 -11,-34 -7,-8 -18,-12 -31,-12 -12,0 -22,3 -29,9 -7,6 -11,14 -11,24l0 88c0,9 2,15 6,19 4,4 11,7 20,8 4,0 6,2 6,5 0,3 -2,4 -5,4 -2,0 -5,0 -10,-1 -3,0 -9,-1 -17,-1l-14 0 -14 0c-2,0 -4,0 -7,0 -4,0 -6,1 -8,1 -3,0 -5,-1 -5,-4 0,-2 2,-4 5,-5 6,-2 10,-4 12,-7 2,-3 3,-9 3,-18l0 -92c0,-10 -1,-17 -3,-20 -2,-4 -6,-6 -12,-6l-9 0c-1,0 -3,0 -3,-1 -1,0 -1,-1 -1,-2 0,-2 2,-3 5,-4 14,-4 27,-9 39,-16 5,-3 9,-4 10,-4 2,0 3,3 3,8l0 25zm303 43l0 4c0,23 6,43 19,59 13,16 29,24 48,24 15,0 31,-7 49,-20 1,-1 2,-1 3,-1 2,0 3,1 3,3 0,4 -5,10 -14,17 -18,14 -37,21 -57,21 -22,0 -41,-8 -56,-25 -15,-17 -23,-38 -23,-63 0,-24 8,-45 23,-62 16,-18 34,-27 55,-27 23,0 41,10 55,29 3,5 7,11 10,19 3,8 5,13 5,17 0,4 -4,7 -13,7l-15 0 -14 0 -78 0zm1 -11l70 0c11,0 16,-2 16,-7 0,-11 -5,-21 -14,-30 -9,-9 -19,-14 -30,-14 -11,0 -21,4 -28,13 -8,9 -12,21 -14,37zm204 -26c18,-22 37,-33 57,-33 22,0 39,9 52,27 9,12 13,31 13,56l0 49 0 6 1 10c1,9 7,14 17,16l9 1c4,1 6,2 6,4 0,3 -2,4 -7,4 -1,0 -4,0 -8,-1 -4,-1 -13,-1 -25,-1l-20 0 -8 0 -6 0 -3 -1c-1,-1 -1,-2 -1,-3 0,-2 1,-4 4,-4l6 -2c5,-1 8,-6 8,-15l0 -71c0,-19 -4,-34 -13,-44 -9,-10 -21,-15 -37,-15 -11,0 -21,3 -30,10 -9,7 -13,14 -13,23l0 78 0 6 0 10c1,12 10,18 28,19 4,0 7,2 7,5 0,3 -2,4 -5,4 -2,0 -6,0 -11,-1 -3,0 -9,0 -19,0 -22,0 -35,0 -39,1 -4,0 -7,1 -8,1 -3,0 -4,-1 -4,-3 0,-2 1,-3 4,-4 7,-2 12,-5 14,-9 2,-4 4,-9 4,-17l0 -92c0,-10 -1,-16 -4,-20 -2,-3 -7,-5 -13,-5l-9 0c-1,0 -2,0 -3,-1 -1,-1 -2,-2 -2,-3 0,-2 2,-3 5,-4 9,-2 18,-4 27,-8l11 -5c4,-2 7,-3 8,-4 2,-1 4,-2 5,-2 2,0 4,2 3,6 0,2 0,5 0,8l0 23zm224 -8l0 104c0,13 2,22 6,26 6,6 14,9 24,9 8,0 15,-2 21,-5l11 -5 1 0c2,0 2,1 2,2 0,4 -5,9 -16,14 -11,5 -21,8 -30,8 -32,0 -47,-16 -47,-49l0 -104 -18 0c-4,0 -5,-1 -5,-3 0,-2 2,-4 5,-7 16,-14 28,-27 37,-41 4,-6 6,-9 8,-9 2,0 3,2 3,5l-1 36 44 0c6,0 11,-1 14,-3 2,-2 4,-2 5,-3 2,0 2,0 2,2 0,1 -1,2 -2,5l-5 12c-1,4 -4,6 -9,6l-49 0zm168 -25c25,0 46,9 64,26 18,17 27,38 27,62 0,26 -9,48 -26,64 -17,17 -39,25 -66,25 -26,0 -47,-8 -64,-25 -17,-16 -25,-38 -25,-63 0,-25 9,-46 27,-64 18,-17 39,-26 65,-26zm-5 8c-17,0 -31,6 -41,19 -10,13 -16,29 -16,50 0,26 7,48 20,66 13,18 29,26 49,26 17,0 30,-6 40,-19 10,-12 15,-29 15,-51 0,-27 -6,-49 -19,-66 -12,-17 -28,-25 -48,-25zm183 -8c11,0 20,1 28,4l9 3c4,1 6,3 6,6l0 3c0,2 0,4 0,6l1 8c0,3 1,6 1,8 0,5 -2,8 -5,8 -2,0 -3,-2 -5,-5 -8,-21 -22,-31 -42,-31 -8,0 -15,2 -20,7 -5,5 -8,11 -8,18 0,8 3,14 9,18 6,5 17,10 35,17 17,7 29,14 36,21 7,7 10,17 10,30 0,15 -6,29 -17,40 -11,11 -25,16 -41,16 -11,0 -24,-3 -37,-10 -3,-1 -5,-2 -6,-2l-5 -1c-3,0 -5,-2 -5,-5l0 -9 -1 -26 0 -6c1,-4 2,-6 5,-6 3,0 4,2 5,6 3,15 9,27 17,35 8,8 18,13 30,13 10,0 18,-3 25,-9 6,-6 10,-13 10,-23 0,-14 -8,-24 -23,-31l-18 -8c-16,-7 -28,-14 -35,-22 -7,-8 -10,-17 -10,-28 0,-13 5,-24 16,-33 11,-9 24,-14 39,-14zm260 -76l0 83c0,6 1,10 2,12 1,1 5,2 11,2l32 0c14,0 26,-1 34,-2 7,-2 12,-4 14,-6 2,-2 4,-8 6,-17 1,-3 2,-5 5,-5 3,0 4,2 4,6 0,1 0,2 0,5 -1,13 -2,25 -2,36 0,8 1,17 2,25 0,3 0,5 0,6 0,3 -1,5 -4,5 -3,0 -5,-2 -5,-5l-1 -6c-2,-9 -5,-16 -10,-19 -5,-3 -13,-5 -25,-5l-46 0c-7,0 -11,1 -13,2 -2,1 -3,4 -3,8l0 7 0 76c0,12 2,19 6,22 4,3 15,4 32,4 54,0 88,-12 104,-36 2,-2 3,-4 5,-4 3,0 4,2 4,5 0,9 -5,19 -15,32 -12,15 -27,22 -46,22 -4,0 -9,0 -16,-1 -26,-3 -48,-4 -65,-4 -24,0 -41,1 -51,2 -5,1 -9,1 -11,1 -4,0 -7,-1 -7,-4 0,-2 2,-4 5,-5l8 -2c10,-3 15,-12 15,-29l0 -13 0 -174c0,-20 -2,-33 -6,-40 -4,-7 -13,-10 -25,-10 -4,0 -6,-1 -6,-4 0,-4 3,-6 9,-6 3,0 8,0 14,1 20,2 43,3 71,3 17,0 32,0 44,-1l29 -1c8,0 13,-1 15,-1 4,0 6,-1 8,-1 5,0 7,2 7,6 0,1 0,3 -1,5 0,2 -1,7 -2,16l-1 12c-1,8 -1,13 -2,15 -1,2 -2,3 -5,3 -3,0 -4,-2 -4,-6l0 -5c0,-4 -1,-9 -2,-13 -3,-6 -8,-10 -16,-12 -8,-2 -22,-3 -44,-3l-32 0c-8,0 -14,1 -16,3 -2,2 -4,7 -4,14zm234 76c11,0 20,1 28,4l9 3c4,1 6,3 6,6l0 3c0,2 0,4 0,6l1 8c0,3 1,6 1,8 0,5 -2,8 -5,8 -2,0 -3,-2 -5,-5 -8,-21 -22,-31 -42,-31 -8,0 -15,2 -20,7 -5,5 -8,11 -8,18 0,8 3,14 9,18 6,5 17,10 35,17 17,7 29,14 36,21 7,7 10,17 10,30 0,15 -6,29 -17,40 -11,11 -25,16 -41,16 -11,0 -24,-3 -37,-10 -3,-1 -5,-2 -6,-2l-5 -1c-3,0 -5,-2 -5,-5l0 -9 -1 -26 0 -6c1,-4 2,-6 5,-6 3,0 4,2 5,6 3,15 9,27 17,35 8,8 18,13 30,13 10,0 18,-3 25,-9 6,-6 10,-13 10,-23 0,-14 -8,-24 -23,-31l-18 -8c-16,-7 -28,-14 -35,-22 -7,-8 -10,-17 -10,-28 0,-13 5,-24 16,-33 11,-9 24,-14 39,-14zm138 30c20,-20 40,-30 60,-30 20,0 38,8 51,23 14,16 21,35 21,58 0,27 -8,49 -25,68 -17,19 -37,28 -60,28 -13,0 -29,-4 -47,-12l0 41c0,15 2,25 6,30 4,5 13,8 25,8 4,0 6,1 6,4 0,2 -2,4 -6,4l-11 0 -20 0 -22 0 -9 0 -8 1 -10 0 -3 0c-1,-1 -2,-2 -2,-3 0,-2 2,-4 5,-5 6,-1 11,-4 13,-9 2,-5 4,-12 4,-23l0 -8 0 -153 0 -9c0,-8 -2,-13 -5,-16 -3,-3 -9,-4 -17,-4l-4 0c-1,0 -2,0 -3,0 -1,-1 -1,-2 -1,-3 0,-2 2,-4 5,-5 23,-6 39,-13 47,-20 2,-1 3,-2 4,-2 2,0 3,2 3,6l0 4 -1 28zm0 22l0 70c0,13 5,24 14,32 10,8 22,12 38,12 17,0 31,-6 41,-18 10,-12 15,-28 15,-48 0,-24 -6,-44 -18,-59 -12,-15 -27,-23 -45,-23 -12,0 -23,3 -32,10 -9,7 -13,15 -13,24zm191 18l0 4c0,23 6,43 19,59 13,16 29,24 48,24 15,0 31,-7 49,-20 1,-1 2,-1 3,-1 2,0 3,1 3,3 0,4 -5,10 -14,17 -18,14 -37,21 -57,21 -22,0 -41,-8 -56,-25 -15,-17 -23,-38 -23,-63 0,-24 8,-45 23,-62 16,-18 34,-27 55,-27 23,0 41,10 55,29 3,5 7,11 10,19 3,8 5,13 5,17 0,4 -4,7 -13,7l-15 0 -14 0 -78 0zm1 -11l70 0c11,0 16,-2 16,-7 0,-11 -5,-21 -14,-30 -9,-9 -19,-14 -30,-14 -11,0 -21,4 -28,13 -8,9 -12,21 -14,37zm237 -59c12,0 22,1 32,4 9,3 14,6 14,10l0 6 1 16c0,7 -2,11 -5,11 -2,0 -4,-2 -6,-6 -4,-8 -12,-15 -22,-20 -10,-6 -20,-9 -30,-9 -13,0 -24,6 -33,18 -8,12 -13,28 -13,47 0,23 7,42 20,58 13,16 29,24 48,24 15,0 30,-6 45,-19 2,-1 4,-2 5,-2 2,0 3,1 3,3 0,3 -3,7 -10,13 -17,15 -37,23 -61,23 -22,0 -40,-8 -55,-24 -15,-16 -22,-36 -22,-59 0,-26 9,-49 26,-67 17,-18 39,-28 63,-28zm122 -85c3,0 7,3 10,8l5 8c1,2 2,4 2,5 0,3 -2,8 -7,13 -5,6 -9,8 -12,8 -3,0 -6,-3 -11,-8 -5,-5 -7,-10 -7,-13 0,-3 3,-8 8,-13 5,-6 9,-8 12,-8zm13 224c0,10 1,16 3,20 2,3 7,5 13,6l9 1c5,1 7,2 7,5 0,2 -2,3 -6,3 -2,0 -7,0 -13,-1 -4,0 -9,0 -14,0l-13 0 -15 1c-3,0 -5,0 -6,0 -4,0 -6,0 -7,0 -4,0 -6,-1 -6,-4 0,-2 1,-4 4,-5l4 -1c4,-1 7,-4 9,-8 2,-4 3,-10 3,-18l0 -89c0,-11 -1,-19 -3,-22 -2,-3 -7,-5 -14,-5 -5,0 -8,-1 -8,-3 0,-2 4,-4 11,-6 8,-3 18,-7 30,-13l11 -5c2,0 3,2 3,5l0 139zm151 -57l0 -25c0,-16 -3,-26 -9,-32 -8,-8 -19,-12 -32,-12 -18,0 -27,8 -27,23 0,4 1,10 3,15 1,2 1,5 1,6 0,2 -1,4 -4,4 -6,0 -12,-1 -18,-4 -5,-3 -8,-6 -8,-9 0,-8 5,-18 14,-27 12,-13 29,-20 49,-20 19,0 33,4 44,12 10,8 15,20 15,35l0 80c0,13 2,22 5,27 3,5 8,8 16,8 2,0 4,0 5,0 2,-1 4,-1 5,-1 2,0 3,1 3,3 0,2 -3,5 -10,8 -6,3 -12,4 -19,4 -11,0 -22,-7 -31,-21 -20,15 -38,23 -55,23 -13,0 -23,-3 -31,-10 -8,-7 -11,-16 -11,-28 0,-16 7,-28 22,-37 14,-9 39,-16 73,-21zm0 8c-21,2 -38,7 -49,14 -12,8 -17,18 -17,30 0,9 3,17 8,22 5,6 13,8 22,8 11,0 21,-4 29,-11 5,-5 7,-12 7,-23l0 -40zm126 -175c3,0 7,3 10,8l5 8c1,2 2,4 2,5 0,3 -2,8 -7,13 -5,6 -9,8 -12,8 -3,0 -6,-3 -11,-8 -5,-5 -7,-10 -7,-13 0,-3 3,-8 8,-13 5,-6 9,-8 12,-8zm13 224c0,10 1,16 3,20 2,3 7,5 13,6l9 1c5,1 7,2 7,5 0,2 -2,3 -6,3 -2,0 -7,0 -13,-1 -4,0 -9,0 -14,0l-13 0 -15 1c-3,0 -5,0 -6,0 -4,0 -6,0 -7,0 -4,0 -6,-1 -6,-4 0,-2 1,-4 4,-5l4 -1c4,-1 7,-4 9,-8 2,-4 3,-10 3,-18l0 -89c0,-11 -1,-19 -3,-22 -2,-3 -7,-5 -14,-5 -5,0 -8,-1 -8,-3 0,-2 4,-4 11,-6 8,-3 18,-7 30,-13l11 -5c2,0 3,2 3,5l0 139z"/>
   <path class="fil9" d="M5430 2799c11,0 20,1 28,4l9 3c4,1 6,3 6,6l0 3c0,2 0,4 0,6l1 8c0,3 1,6 1,8 0,5 -2,8 -5,8 -2,0 -3,-2 -5,-5 -8,-21 -22,-31 -42,-31 -8,0 -15,2 -20,7 -5,5 -8,11 -8,18 0,8 3,14 9,18 6,5 17,10 35,17 17,7 29,14 36,21 7,7 10,17 10,30 0,15 -6,29 -17,40 -11,11 -25,16 -41,16 -11,0 -24,-3 -37,-10 -3,-1 -5,-2 -6,-2l-5 -1c-3,0 -5,-2 -5,-5l0 -9 -1 -26 0 -6c1,-4 2,-6 5,-6 3,0 4,2 5,6 3,15 9,27 17,35 8,8 18,13 30,13 10,0 18,-3 25,-9 6,-6 10,-13 10,-23 0,-14 -8,-24 -23,-31l-18 -8c-16,-7 -28,-14 -35,-22 -7,-8 -10,-17 -10,-28 0,-13 5,-24 16,-33 11,-9 24,-14 39,-14z"/>
  </g>
 </g>
</svg>
